<svg xmlns="http://www.w3.org/2000/svg" width="282" height="116" viewBox="0 0 282 116">
  <g fill="none">
    <path fill="#FFF" d="M120.14,54.14 C120.14,35.64 108.44,23.74 88.84,23.74 C71.54,23.74 59.74,33.44 57.34,49.94 L73.44,85.34 C78.4362581,87.5853324 83.8628671,88.7116098 89.34,88.64 C107.04,88.64 116.94,80.54 119.64,67.14 L98.74,67.14 C97.44,70.34 94.84,71.74 89.74,71.74 C82.04,71.74 78.24,67.34 77.34,58.94 L120.14,58.94 L120.14,54.14 Z M78.14,46.54 C79.74,41.34 82.74,38.44 88.84,38.44 C94.44,38.44 97.84,41.14 98.94,46.54 L78.14,46.54 Z"/>
    <polygon fill="#FFF" points="44.44 87 31.94 60.7 28.64 60.7 21.54 68.9 21.54 87 .64 87 .64 .64 21.44 .64 21.44 45.54 40.44 25.24 63.14 25.24 45.74 44.34 65.84 87"/>
    <path fill="#FFF" d="M5.94 99.14C8.64 99.14 10.04 100.54 10.04 102.74 10.04 104.94 8.54 106.34 5.94 106.34L1.94 106.34 1.94 111.54.74 111.54.74 99 5.94 99 5.94 99.14zM5.74 105.34C8.04 105.34 8.94 104.34 8.94 102.74 8.94 101.14 8.14 100.14 5.74 100.14L1.94 100.14 1.94 105.34 5.74 105.34zM16.44 103.84L15.74 103.84C14.9241413 103.802647 14.1328826 104.12465 13.5749391 104.721072 13.0169955 105.317494 12.7483994 106.12844 12.84 106.94L12.84 111.54 11.74 111.54 11.74 102.74 12.84 102.74 12.84 103.84 13.24 103.84C13.9014924 103.10708 14.8533518 102.70437 15.84 102.74L16.44 102.74 16.44 103.84zM25.24 107L18.44 107 18.44 107.2C18.44 109.4 19.64 110.8 21.54 110.8 22.6520102 110.947691 23.708355 110.27163 24.04 109.2L25.14 109.2C24.84 110.6 23.64 111.7 21.54 111.7 18.84 111.7 17.34 109.6 17.34 107 17.34 104.4 18.84 102.5 21.54 102.5 22.602021 102.496685 23.6169693 102.937954 24.3388972 103.716876 25.0608251 104.495798 25.4238493 105.541289 25.34 106.6L25.34 107 25.24 107zM18.54 106L24.14 106C24.0595548 104.575797 22.8661747 103.470815 21.44 103.5 19.9888109 103.503401 18.7571814 104.56515 18.54 106zM26.34 109.24L27.44 109.24C27.64 110.34 28.54 110.94 30.04 110.94 31.54 110.94 32.54 110.34 32.54 109.24 32.54 108.34 32.04 107.84 30.84 107.64 30.44 107.54 29.34 107.44 28.74 107.24 27.617133 107.19162 26.7335807 106.26389 26.74 105.14 26.74 103.74 27.84 102.64 30.14 102.64 32.14 102.64 33.34 103.64 33.54 105.04L32.44 105.04C32.34 104.04 31.34 103.54 30.14 103.54 28.74 103.54 27.94 104.04 27.94 104.94 27.94 105.84 28.44 106.04 29.44 106.24 29.7324836 106.322476 30.0365457 106.356261 30.34 106.34L31.44 106.54C32.94 106.84 33.84 107.54 33.84 109.04 33.84 110.54 32.64 111.74 30.34 111.74 27.74 111.84 26.64 110.84 26.34 109.24zM42.74 107L35.94 107 35.94 107.2C35.94 109.4 37.14 110.8 39.04 110.8 40.1520102 110.947691 41.208355 110.27163 41.54 109.2L42.64 109.2C42.34 110.6 41.14 111.7 39.04 111.7 36.34 111.7 34.84 109.6 34.84 107 34.84 104.4 36.34 102.5 39.04 102.5 40.102021 102.496685 41.1169693 102.937954 41.8388972 103.716876 42.5608251 104.495798 42.9238493 105.541289 42.84 106.6L42.84 107 42.74 107zM36 106L41.6 106C41.5195548 104.575797 40.3261747 103.470815 38.9 103.5 37.4580826 103.527947 36.2400939 104.577938 36 106zM49.34 103.84L48.64 103.84C47.8241413 103.802647 47.0328826 104.12465 46.4749391 104.721072 45.9169955 105.317494 45.6483994 106.12844 45.74 106.94L45.74 111.54 44.64 111.54 44.64 102.74 45.74 102.74 45.74 103.84 46.14 103.84C46.8014924 103.10708 47.7533518 102.70437 48.74 102.74L49.34 102.74 49.34 103.84z"/>
    <polygon fill="#FFF" points="50.44 102.84 51.54 102.84 54.24 110.54 54.94 110.54 57.54 102.84 58.74 102.84 55.64 111.64 53.44 111.64"/>
    <path fill="#FFF" d="M60.14 100.24L60.14 98.84 61.34 98.84 61.34 100.24 60.14 100.24zM61.34 111.64L60.24 111.64 60.24 102.84 61.34 102.84 61.34 111.64zM70.24 111.64L70.24 106.24C70.24 104.44 69.44 103.64 67.84 103.64 67.0259529 103.66531 66.2571805 104.020503 65.7102679 104.623993 65.1633553 105.227483 64.8853106 106.027398 64.94 106.84L64.94 111.64 63.84 111.64 63.84 102.84 64.94 102.84 64.94 103.84 65.34 103.84C66.0006564 103.03693 67.0011987 102.592244 68.04 102.64 68.963121 102.563303 69.8732084 102.896803 70.5282026 103.551797 71.1831968 104.206792 71.5166967 105.116879 71.44 106.04L71.44 111.74 70.24 111.74 70.24 111.64zM81.24 102.84L81.24 111.14C81.24 113.64 79.84 115.24 77.24 115.24 75.04 115.24 73.64 114.34 73.34 112.64L74.44 112.64C74.74 113.84 75.74 114.24 77.24 114.24 79.24 114.24 80.14 113.14 80.14 111.14L80.14 110.44 79.74 110.44C79.0370473 111.244067 78.0070504 111.685494 76.94 111.64 74.54 111.64 73.04 109.74 73.04 107.14 73.04 104.54 74.54 102.64 76.94 102.64 78.0070504 102.594506 79.0370473 103.035933 79.74 103.84L80.14 103.84 80.14 102.84 81.24 102.84zM80.14 107.14C80.14 105.34 79.24 103.64 77.14 103.64 75.24 103.64 74.24 105.04 74.24 107.14 74.24 109.24 75.34 110.64 77.14 110.64 79.24 110.64 80.14 108.94 80.14 107.14zM92.14 102.84L92.14 103.84 89.84 103.84 89.84 109.14C89.84 110.14 90.24 110.64 91.54 110.64L92.14 110.64 92.14 111.64 91.54 111.64C89.64 111.64 88.74 111.04 88.74 109.24L88.74 103.84 87.14 103.84 87.14 102.84 88.74 102.84 88.74 100.14 89.84 100.14 89.84 102.84 92.14 102.84zM100.54 111.64L100.54 106.24C100.54 104.44 99.74 103.64 98.14 103.64 97.3259529 103.66531 96.5571805 104.020503 96.0102679 104.623993 95.4633553 105.227483 95.1853106 106.027398 95.24 106.84L95.24 111.64 94.14 111.64 94.14 98.84 95.24 98.84 95.24 103.84 95.64 103.84C96.3006564 103.03693 97.3011987 102.592244 98.34 102.64 99.263121 102.563303 100.173208 102.896803 100.828203 103.551797 101.483197 104.206792 101.816697 105.116879 101.74 106.04L101.74 111.74 100.54 111.74 100.54 111.64zM111.34 107L104.54 107 104.54 107.2C104.54 109.4 105.74 110.8 107.64 110.8 108.75201 110.947691 109.808355 110.27163 110.14 109.2L111.24 109.2C110.94 110.6 109.74 111.7 107.64 111.7 104.94 111.7 103.44 109.6 103.44 107 103.44 104.4 104.94 102.5 107.64 102.5 108.702021 102.496685 109.716969 102.937954 110.438897 103.716876 111.160825 104.495798 111.523849 105.541289 111.44 106.6L111.44 107 111.34 107zM104.64 106L110.24 106C110.159555 104.575797 108.966175 103.470815 107.54 103.5 106.088811 103.503401 104.857181 104.56515 104.64 106zM119.34 103.84L119.34 111.64 118.24 111.64 118.24 103.84 116.64 103.84 116.64 102.84 118.24 102.84 118.24 101.64C118.24 99.74 119.14 98.84 121.04 98.84L121.74 98.84 121.74 99.84 121 99.84C119.7 99.84 119.3 100.64 119.3 101.64L119.3 102.84 121.8 102.84 121.8 103.84 119.34 103.84zM124.24 102.84L124.24 108.24C124.24 110.04 125.04 110.84 126.64 110.84 127.454047 110.81469 128.222819 110.459497 128.769732 109.856007 129.316645 109.252517 129.594689 108.452602 129.54 107.64L129.54 102.84 130.64 102.84 130.64 111.64 129.54 111.64 129.54 110.64 129.14 110.64C128.479344 111.44307 127.478801 111.887756 126.44 111.84 125.516879 111.916697 124.606792 111.583197 123.951797 110.928203 123.296803 110.273208 122.963303 109.363121 123.04 108.44L123.04 102.74 124.24 102.74 124.24 102.84zM137.24 102.84L137.24 103.84 134.94 103.84 134.94 109.14C134.94 110.14 135.34 110.64 136.64 110.64L137.24 110.64 137.24 111.64 136.64 111.64C134.74 111.64 133.84 111.04 133.84 109.24L133.84 103.84 132.24 103.84 132.24 102.84 133.84 102.84 133.84 100.14 134.94 100.14 134.94 102.84 137.24 102.84zM140.24 102.84L140.24 108.24C140.24 110.04 141.04 110.84 142.64 110.84 143.454047 110.81469 144.222819 110.459497 144.769732 109.856007 145.316645 109.252517 145.594689 108.452602 145.54 107.64L145.54 102.84 146.64 102.84 146.64 111.64 145.54 111.64 145.54 110.64 145.14 110.64C144.479344 111.44307 143.478801 111.887756 142.44 111.84 141.516879 111.916697 140.606792 111.583197 139.951797 110.928203 139.296803 110.273208 138.963303 109.363121 139.04 108.44L139.04 102.74 140.24 102.74 140.24 102.84zM153.74 103.84L153 103.84C152.184141 103.802647 151.392883 104.12465 150.834939 104.721072 150.276996 105.317494 150.008399 106.12844 150.1 106.94L150.1 111.54 149 111.54 149 102.74 150.1 102.74 150.1 103.84 150.5 103.84C151.161492 103.10708 152.113352 102.70437 153.1 102.74L153.7 102.74 153.7 103.84 153.74 103.84zM162.54 107L155.74 107 155.74 107.2C155.74 109.4 156.94 110.8 158.84 110.8 159.95201 110.947691 161.008355 110.27163 161.34 109.2L162.44 109.2C162.14 110.6 160.94 111.7 158.84 111.7 156.14 111.7 154.64 109.6 154.64 107 154.64 104.4 156.14 102.5 158.84 102.5 159.902021 102.496685 160.916969 102.937954 161.638897 103.716876 162.360825 104.495798 162.723849 105.541289 162.64 106.6L162.64 107 162.54 107zM155.84 106L161.44 106C161.359555 104.575797 160.166175 103.470815 158.74 103.5 157.288811 103.503401 156.057181 104.56515 155.84 106zM180.64 67L165.84 67C164.54 70.2 161.94 71.6 156.84 71.6 149.14 71.6 145.34 67.2 144.44 58.8L180.64 58.8 180.64 33.8C175.34 27.3 166.84 23.6 155.94 23.6 136.54 23.6 123.94 35.8 123.94 56 123.94 76.2 136.74 88.4 156.34 88.4 167.44 88.4 175.44 85.2 180.54 79.5L180.54 67 180.64 67zM155.94 38.4C161.54 38.4 164.94 41.1 166.04 46.5L145.24 46.5C146.84 41.24 149.94 38.44 155.94 38.44L155.94 38.4zM212.84 81.84L209.54 81.84 209.54 111.64 188.74 111.64 188.74 25.24 208.74 25.24 208.74 30.44 212 30.44C215.3 26.24 220.1 23.64 228.2 23.64 244.4 23.64 253.9 37.14 253.9 56.04 253.9 74.94 244 88.44 228.2 88.44 220.54 88.54 216 85.94 212.84 81.84zM208.64 56.14C208.64 64.44 212.44 71.74 221.14 71.74 229.84 71.74 233.24 64.44 233.24 56.14 233.24 47.84 229.74 40.54 221.14 40.54 212.54 40.54 208.64 47.84 208.64 56.14z"/>
    <path fill="#E43730" d="M276.14,67.54 C277.868256,68.5679562 279.312044,70.0117438 280.34,71.74 C281.397332,73.4154976 281.952566,75.3588171 281.94,77.34 C281.953378,79.3526675 281.398815,81.3282988 280.34,83.04 C279.312044,84.7682562 277.868256,86.2120438 276.14,87.24 C274.456348,88.2679493 272.512052,88.7887429 270.54,88.74 C268.542367,88.7404544 266.578648,88.2236861 264.84,87.24 C263.090222,86.2399675 261.640033,84.7897783 260.64,83.04 C259.61119,81.3200135 259.091081,79.3435992 259.14,77.34 C259.126808,75.3723431 259.645038,73.4376156 260.64,71.74 C261.667956,70.0117438 263.111744,68.5679562 264.84,67.54 C266.551701,66.4811854 268.527333,65.9266222 270.54,65.94 C272.506852,66.0234576 274.42594,66.5717684 276.14,67.54 Z"/>
  </g>
</svg>
